<svg width="16" height="16" viewBox="0 0 16 16" fill="none" xmlns="http://www.w3.org/2000/svg">
<g clip-path="url(#clip0_4166_434)">
<path d="M13.137 9.335V11.7676C13.137 13.4968 12.5633 14.6631 12.5389 14.7125C12.4474 14.8954 12.2604 15.011 12.0558 15.0111C11.972 15.0112 11.8894 14.9915 11.8146 14.9537C11.5476 14.8202 11.4393 14.4957 11.5727 14.2286C11.5767 14.2205 12.0565 13.2279 12.0565 11.7676V9.335C12.0559 8.71079 11.3799 8.32125 10.8395 8.63383C10.5892 8.77865 10.435 9.04581 10.4347 9.335V9.6053C10.4347 10.0214 9.98424 10.2815 9.62385 10.0735C9.4566 9.97689 9.35356 9.79843 9.35356 9.6053V8.25383C9.35302 7.62963 8.67694 7.24008 8.13664 7.55266C7.88632 7.69748 7.73207 7.96465 7.73182 8.25383V9.06471C7.73182 9.48085 7.28133 9.74094 6.92094 9.53287C6.75368 9.4363 6.65065 9.25784 6.65065 9.06471V4.46975C6.6501 3.84554 5.97403 3.456 5.43372 3.76858C5.1834 3.9134 5.02915 4.18056 5.0289 4.46975V11.7676C5.02888 12.1838 4.57838 12.4438 4.218 12.2358C4.14116 12.1914 4.07642 12.1288 4.0295 12.0535L2.76724 10.0263L2.75777 10.0107C2.44567 9.46975 1.66497 9.46949 1.35252 10.0103C1.2075 10.2613 1.20741 10.5705 1.35225 10.8216L3.33147 14.2003C3.56504 14.5447 3.33819 15.0128 2.92313 15.0428C2.70292 15.0588 2.49515 14.9392 2.39829 14.7408L0.417048 11.3622C-0.31562 10.1031 0.589461 8.52303 2.0462 8.51807C2.72227 8.51576 3.34822 8.87431 3.68825 9.45866L3.94705 9.87558V4.46975C3.94705 3.01326 5.52375 2.10295 6.78512 2.8312C7.37052 3.16918 7.73114 3.79379 7.73114 4.46975V6.54424C8.76365 6.05421 9.99157 6.58446 10.3428 7.67203C11.6035 6.98826 13.1368 7.90087 13.137 9.335ZM15.6818 3.27641L13.5194 1.11408C13.225 0.81992 12.7226 0.954795 12.615 1.35685C12.5651 1.54344 12.6185 1.74249 12.7552 1.87901L13.9938 3.11829H10.4341C10.0179 3.11831 9.75782 3.56881 9.9659 3.92919C10.0625 4.09643 10.2409 4.19945 10.4341 4.19946H13.9945L12.7545 5.43875C12.4601 5.73291 12.5945 6.23548 12.9965 6.34337C13.183 6.39345 13.3821 6.3402 13.5188 6.20368L15.6811 4.04134C15.8927 3.83037 15.893 3.48776 15.6818 3.27641Z" fill="#253143"/>
</g>
<defs>
<clipPath id="clip0_4166_434">
<rect width="16" height="16" fill="white"/>
</clipPath>
</defs>
</svg>
