<svg width="20" height="20" viewBox="0 0 20 20" fill="none" xmlns="http://www.w3.org/2000/svg">
<path d="M3.3335 4.99967C3.3335 4.55765 3.50909 4.13372 3.82165 3.82116C4.13421 3.5086 4.55814 3.33301 5.00016 3.33301H6.66683C7.10886 3.33301 7.53278 3.5086 7.84534 3.82116C8.1579 4.13372 8.3335 4.55765 8.3335 4.99967V5.83301C8.3335 6.27504 8.1579 6.69896 7.84534 7.01152C7.53278 7.32408 7.10886 7.49967 6.66683 7.49967H5.00016C4.55814 7.49967 4.13421 7.32408 3.82165 7.01152C3.50909 6.69896 3.3335 6.27504 3.3335 5.83301V4.99967Z" stroke="#253143" stroke-width="1.5" stroke-linecap="round" stroke-linejoin="round"/>
<path d="M3.3335 12.4997C3.3335 12.0576 3.50909 11.6337 3.82165 11.3212C4.13421 11.0086 4.55814 10.833 5.00016 10.833H6.66683C7.10886 10.833 7.53278 11.0086 7.84534 11.3212C8.1579 11.6337 8.3335 12.0576 8.3335 12.4997V14.9997C8.3335 15.4417 8.1579 15.8656 7.84534 16.1782C7.53278 16.4907 7.10886 16.6663 6.66683 16.6663H5.00016C4.55814 16.6663 4.13421 16.4907 3.82165 16.1782C3.50909 15.8656 3.3335 15.4417 3.3335 14.9997V12.4997Z" stroke="#253143" stroke-width="1.5" stroke-linecap="round" stroke-linejoin="round"/>
<path d="M11.6665 4.99967C11.6665 4.55765 11.8421 4.13372 12.1547 3.82116C12.4672 3.5086 12.8911 3.33301 13.3332 3.33301H14.9998C15.4419 3.33301 15.8658 3.5086 16.1783 3.82116C16.4909 4.13372 16.6665 4.55765 16.6665 4.99967V7.49967C16.6665 7.9417 16.4909 8.36562 16.1783 8.67819C15.8658 8.99075 15.4419 9.16634 14.9998 9.16634H13.3332C12.8911 9.16634 12.4672 8.99075 12.1547 8.67819C11.8421 8.36562 11.6665 7.9417 11.6665 7.49967V4.99967Z" stroke="#253143" stroke-width="1.5" stroke-linecap="round" stroke-linejoin="round"/>
<path d="M11.6665 14.1667C11.6665 13.7246 11.8421 13.3007 12.1547 12.9882C12.4672 12.6756 12.8911 12.5 13.3332 12.5H14.9998C15.4419 12.5 15.8658 12.6756 16.1783 12.9882C16.4909 13.3007 16.6665 13.7246 16.6665 14.1667V15C16.6665 15.442 16.4909 15.866 16.1783 16.1785C15.8658 16.4911 15.4419 16.6667 14.9998 16.6667H13.3332C12.8911 16.6667 12.4672 16.4911 12.1547 16.1785C11.8421 15.866 11.6665 15.442 11.6665 15V14.1667Z" stroke="#253143" stroke-width="1.5" stroke-linecap="round" stroke-linejoin="round"/>
</svg>
