<svg width="20" height="20" viewBox="0 0 20 20" fill="none" xmlns="http://www.w3.org/2000/svg">
<path d="M10.8335 4.16699H17.5002" stroke="#253143" stroke-width="1.5" stroke-linecap="round" stroke-linejoin="round"/>
<path d="M10.8335 7.5H15.0002" stroke="#253143" stroke-width="1.5" stroke-linecap="round" stroke-linejoin="round"/>
<path d="M10.8335 12.5H17.5002" stroke="#253143" stroke-width="1.5" stroke-linecap="round" stroke-linejoin="round"/>
<path d="M10.8335 15.833H15.0002" stroke="#253143" stroke-width="1.5" stroke-linecap="round" stroke-linejoin="round"/>
<path d="M2.5 4.16634C2.5 3.94533 2.5878 3.73337 2.74408 3.57709C2.90036 3.42081 3.11232 3.33301 3.33333 3.33301H6.66667C6.88768 3.33301 7.09964 3.42081 7.25592 3.57709C7.4122 3.73337 7.5 3.94533 7.5 4.16634V7.49967C7.5 7.72069 7.4122 7.93265 7.25592 8.08893C7.09964 8.24521 6.88768 8.33301 6.66667 8.33301H3.33333C3.11232 8.33301 2.90036 8.24521 2.74408 8.08893C2.5878 7.93265 2.5 7.72069 2.5 7.49967V4.16634Z" stroke="#253143" stroke-width="1.5" stroke-linecap="round" stroke-linejoin="round"/>
<path d="M2.5 12.5003C2.5 12.2793 2.5878 12.0674 2.74408 11.9111C2.90036 11.7548 3.11232 11.667 3.33333 11.667H6.66667C6.88768 11.667 7.09964 11.7548 7.25592 11.9111C7.4122 12.0674 7.5 12.2793 7.5 12.5003V15.8337C7.5 16.0547 7.4122 16.2666 7.25592 16.4229C7.09964 16.5792 6.88768 16.667 6.66667 16.667H3.33333C3.11232 16.667 2.90036 16.5792 2.74408 16.4229C2.5878 16.2666 2.5 16.0547 2.5 15.8337V12.5003Z" stroke="#253143" stroke-width="1.5" stroke-linecap="round" stroke-linejoin="round"/>
</svg>
