<svg width="173" height="46" viewBox="0 0 173 46" fill="none" xmlns="http://www.w3.org/2000/svg">
<path d="M21.1999 9.76001L30.9599 34.92C31.3599 35.9333 31.8133 36.6133 32.3199 36.96C32.8266 37.28 33.2933 37.4533 33.7199 37.48V38.28C33.1866 38.2267 32.5333 38.2 31.7599 38.2C30.9866 38.1733 30.2133 38.16 29.4399 38.16C28.3999 38.16 27.4266 38.1733 26.5199 38.2C25.6133 38.2 24.8799 38.2267 24.3199 38.28V37.48C25.6799 37.4267 26.5466 37.2 26.9199 36.8C27.2933 36.3733 27.2133 35.48 26.6799 34.12L19.2399 14.24L19.8799 13.72L12.9199 31.8C12.4933 32.8667 12.2399 33.7733 12.1599 34.52C12.0799 35.24 12.1466 35.8133 12.3599 36.24C12.5999 36.6667 12.9866 36.9733 13.5199 37.16C14.0799 37.3467 14.7733 37.4533 15.5999 37.48V38.28C14.8533 38.2267 14.0666 38.2 13.2399 38.2C12.4399 38.1733 11.6933 38.16 10.9999 38.16C10.3333 38.16 9.75994 38.1733 9.27994 38.2C8.82661 38.2 8.39994 38.2267 7.99994 38.28V37.48C8.53327 37.3467 9.07994 37.04 9.63994 36.56C10.1999 36.0533 10.7066 35.2 11.1599 34L20.5599 9.76001C20.6666 9.76001 20.7733 9.76001 20.8799 9.76001C20.9866 9.76001 21.0933 9.76001 21.1999 9.76001ZM26.0799 26.76V27.56H14.1599L14.5599 26.76H26.0799Z" fill="white"/>
<path d="M47.16 17.1201C47.88 17.1201 48.5067 17.2668 49.04 17.5601C49.6 17.8535 50.0267 18.2401 50.32 18.7201C50.64 19.1735 50.8 19.6935 50.8 20.2801C50.8 20.9468 50.5867 21.5335 50.16 22.0401C49.76 22.5468 49.2134 22.8001 48.52 22.8001C47.96 22.8001 47.4667 22.6268 47.04 22.2801C46.6134 21.9068 46.4 21.3868 46.4 20.7201C46.4 20.2135 46.5334 19.7868 46.8 19.4401C47.0934 19.0668 47.4134 18.7735 47.76 18.5601C47.5734 18.2935 47.2934 18.1601 46.92 18.1601C46.0934 18.1601 45.3334 18.4135 44.64 18.9201C43.9467 19.4001 43.36 20.0268 42.88 20.8001C42.4 21.5735 42.0267 22.4001 41.76 23.2801C41.4934 24.1335 41.36 24.9335 41.36 25.6801V34.1601C41.36 35.4668 41.7334 36.3468 42.48 36.8001C43.2534 37.2268 44.2934 37.4401 45.6 37.4401V38.2801C44.9867 38.2535 44.12 38.2268 43 38.2001C41.88 38.1468 40.6934 38.1201 39.44 38.1201C38.5334 38.1201 37.6267 38.1468 36.72 38.2001C35.84 38.2268 35.1734 38.2535 34.72 38.2801V37.4401C35.8134 37.4401 36.5867 37.2401 37.04 36.8401C37.52 36.4401 37.76 35.6801 37.76 34.5601V22.0401C37.76 20.8401 37.5467 19.9601 37.12 19.4001C36.6934 18.8135 35.8934 18.5201 34.72 18.5201V17.6801C35.5734 17.7601 36.4 17.8001 37.2 17.8001C37.9734 17.8001 38.7067 17.7601 39.4 17.6801C40.12 17.5735 40.7734 17.4268 41.36 17.2401V22.2401C41.6534 21.4668 42.0667 20.6935 42.6 19.9201C43.16 19.1201 43.8267 18.4535 44.6 17.9201C45.3734 17.3868 46.2267 17.1201 47.16 17.1201Z" fill="white"/>
<path d="M59.24 10.48V17.16H65.16V17.96H59.24V33.44C59.24 34.6933 59.4667 35.5733 59.92 36.08C60.3733 36.5866 61 36.84 61.8 36.84C62.6 36.84 63.2933 36.52 63.88 35.88C64.4667 35.2133 64.9733 34.1066 65.4 32.56L66.2 32.76C65.9333 34.3066 65.4 35.6133 64.6 36.68C63.8267 37.7466 62.6267 38.28 61 38.28C60.0933 38.28 59.3467 38.16 58.76 37.92C58.1733 37.7066 57.6533 37.3866 57.2 36.96C56.6133 36.3466 56.2 35.6133 55.96 34.76C55.7467 33.9067 55.64 32.7733 55.64 31.36V17.96H51.8V17.16H55.64V11.04C56.3067 11.0133 56.9467 10.96 57.56 10.88C58.1733 10.8 58.7333 10.6666 59.24 10.48Z" fill="white"/>
<path d="M71.76 7.67993C72.4533 7.67993 73.0533 7.93327 73.56 8.43993C74.0667 8.9466 74.32 9.5466 74.32 10.2399C74.32 10.9333 74.0667 11.5333 73.56 12.0399C73.0533 12.5466 72.4533 12.7999 71.76 12.7999C71.0667 12.7999 70.4667 12.5466 69.96 12.0399C69.4533 11.5333 69.2 10.9333 69.2 10.2399C69.2 9.5466 69.4533 8.9466 69.96 8.43993C70.4667 7.93327 71.0667 7.67993 71.76 7.67993ZM73.84 17.2399V34.5599C73.84 35.6799 74.0667 36.4399 74.52 36.8399C75 37.2399 75.7867 37.4399 76.88 37.4399V38.2799C76.4267 38.2533 75.7333 38.2266 74.8 38.1999C73.8933 38.1466 72.9733 38.1199 72.04 38.1199C71.1333 38.1199 70.2133 38.1466 69.28 38.1999C68.3467 38.2266 67.6533 38.2533 67.2 38.2799V37.4399C68.2933 37.4399 69.0667 37.2399 69.52 36.8399C70 36.4399 70.24 35.6799 70.24 34.5599V22.0399C70.24 20.8399 70.0267 19.9599 69.6 19.3999C69.1733 18.8133 68.3733 18.5199 67.2 18.5199V17.6799C68.0533 17.7599 68.88 17.7999 69.68 17.7999C70.4533 17.7999 71.1867 17.7599 71.88 17.6799C72.6 17.5733 73.2533 17.4266 73.84 17.2399Z" fill="white"/>
<path d="M87.88 7C88.6267 7 89.28 7.10667 89.84 7.32C90.4267 7.50667 90.9333 7.76 91.36 8.08C91.76 8.4 92.0667 8.77333 92.28 9.2C92.4933 9.62667 92.6 10.08 92.6 10.56C92.6 11.1733 92.4 11.68 92 12.08C91.6 12.48 91.0933 12.68 90.48 12.68C89.8933 12.68 89.3733 12.4933 88.92 12.12C88.4933 11.72 88.28 11.1867 88.28 10.52C88.28 9.96 88.4267 9.50667 88.72 9.16C89.04 8.81333 89.4533 8.58667 89.96 8.48C89.88 8.24 89.6667 8.04 89.32 7.88C89 7.69334 88.56 7.6 88 7.6C87.3867 7.6 86.8533 7.73334 86.4 8C85.9733 8.26667 85.64 8.62667 85.4 9.08C85.08 9.64 84.88 10.48 84.8 11.6C84.72 12.6933 84.68 14.3867 84.68 16.68V17.72H88.96V18.52H84.68V34.16C84.68 35.4667 85.0533 36.3467 85.8 36.8C86.5733 37.2267 87.6133 37.44 88.92 37.44V38.28C88.3067 38.2533 87.44 38.2267 86.32 38.2C85.2 38.1467 84.0133 38.12 82.76 38.12C81.8533 38.12 80.9467 38.1467 80.04 38.2C79.16 38.2267 78.4933 38.2533 78.04 38.28V37.44C79.1333 37.44 79.9067 37.24 80.36 36.84C80.84 36.44 81.08 35.68 81.08 34.56V18.52H77.88V17.72H81.08C81.08 16.1467 81.1467 14.8267 81.28 13.76C81.4133 12.6933 81.6267 11.7867 81.92 11.04C82.2133 10.2667 82.6133 9.58667 83.12 9C83.6533 8.38667 84.3333 7.90667 85.16 7.56C85.9867 7.18667 86.8933 7 87.88 7Z" fill="white"/>
<path d="M98.88 38.2801C97.7866 38.2801 96.84 38.0801 96.04 37.6801C95.24 37.2534 94.6266 36.6668 94.2 35.9201C93.8 35.1734 93.6 34.3068 93.6 33.3201C93.6 32.1468 93.8666 31.1868 94.4 30.4401C94.96 29.6934 95.6666 29.0934 96.52 28.6401C97.3733 28.1868 98.2666 27.8134 99.2 27.5201C100.16 27.2001 101.067 26.9068 101.92 26.6401C102.773 26.3468 103.467 26.0134 104 25.6401C104.56 25.2668 104.84 24.7734 104.84 24.1601V21.6801C104.84 20.5601 104.667 19.7068 104.32 19.1201C104 18.5334 103.56 18.1468 103 17.9601C102.44 17.7468 101.813 17.6401 101.12 17.6401C100.453 17.6401 99.7333 17.7334 98.96 17.9201C98.2133 18.1068 97.6133 18.4934 97.16 19.0801C97.6666 19.1868 98.1066 19.4534 98.48 19.8801C98.8533 20.3068 99.04 20.8534 99.04 21.5201C99.04 22.1868 98.8266 22.7201 98.4 23.1201C97.9733 23.4934 97.4266 23.6801 96.76 23.6801C95.9866 23.6801 95.4133 23.4401 95.04 22.9601C94.6933 22.4534 94.52 21.8934 94.52 21.2801C94.52 20.5868 94.6933 20.0268 95.04 19.6001C95.3866 19.1734 95.8266 18.7734 96.36 18.4001C96.9733 17.9734 97.76 17.6134 98.72 17.3201C99.7066 17.0001 100.813 16.8401 102.04 16.8401C103.133 16.8401 104.067 16.9734 104.84 17.2401C105.613 17.4801 106.253 17.8401 106.76 18.3201C107.453 18.9601 107.907 19.7468 108.12 20.6801C108.333 21.5868 108.44 22.6801 108.44 23.9601V35.0801C108.44 35.7468 108.533 36.2268 108.72 36.5201C108.933 36.8134 109.253 36.9601 109.68 36.9601C109.973 36.9601 110.253 36.8934 110.52 36.7601C110.787 36.6268 111.107 36.4134 111.48 36.1201L111.92 36.8001C111.36 37.2268 110.827 37.5868 110.32 37.8801C109.813 38.1468 109.133 38.2801 108.28 38.2801C107.507 38.2801 106.867 38.1468 106.36 37.8801C105.853 37.6134 105.467 37.2268 105.2 36.7201C104.96 36.1868 104.84 35.5201 104.84 34.7201C104.12 35.9201 103.253 36.8134 102.24 37.4001C101.253 37.9868 100.133 38.2801 98.88 38.2801ZM100.32 36.6801C101.2 36.6801 102.013 36.4268 102.76 35.9201C103.533 35.4134 104.227 34.6534 104.84 33.6401V25.8001C104.52 26.2534 104.053 26.6401 103.44 26.9601C102.827 27.2534 102.16 27.5601 101.44 27.8801C100.72 28.1734 100.027 28.5334 99.36 28.9601C98.72 29.3601 98.1866 29.8934 97.76 30.5601C97.3333 31.2268 97.12 32.0934 97.12 33.1601C97.12 34.2268 97.4 35.0801 97.96 35.7201C98.5466 36.3601 99.3333 36.6801 100.32 36.6801Z" fill="white"/>
<path d="M122.24 16.5601C123.093 16.5601 123.92 16.6667 124.72 16.8801C125.52 17.0934 126.24 17.4134 126.88 17.8401C127.493 18.2401 127.96 18.7067 128.28 19.2401C128.6 19.7467 128.76 20.3067 128.76 20.9201C128.76 21.6401 128.56 22.2001 128.16 22.6001C127.76 22.9734 127.253 23.1601 126.64 23.1601C126.053 23.1601 125.533 22.9867 125.08 22.6401C124.653 22.2934 124.44 21.8001 124.44 21.1601C124.44 20.5467 124.6 20.0534 124.92 19.6801C125.267 19.3067 125.667 19.0667 126.12 18.9601C125.853 18.4801 125.373 18.0801 124.68 17.7601C124.013 17.4401 123.293 17.2801 122.52 17.2801C121.853 17.2801 121.187 17.4401 120.52 17.7601C119.853 18.0801 119.24 18.6134 118.68 19.3601C118.12 20.0801 117.667 21.0801 117.32 22.3601C116.973 23.6134 116.8 25.1867 116.8 27.0801C116.8 29.4267 117.067 31.2934 117.6 32.6801C118.133 34.0667 118.827 35.0667 119.68 35.6801C120.56 36.2667 121.52 36.5601 122.56 36.5601C123.253 36.5601 123.96 36.4267 124.68 36.1601C125.4 35.8934 126.08 35.4667 126.72 34.8801C127.36 34.2667 127.907 33.4534 128.36 32.4401L129.12 32.7201C128.853 33.5734 128.413 34.4401 127.8 35.3201C127.187 36.1734 126.387 36.8801 125.4 37.4401C124.413 38.0001 123.2 38.2801 121.76 38.2801C120.107 38.2801 118.613 37.8534 117.28 37.0001C115.947 36.1467 114.88 34.9334 114.08 33.3601C113.307 31.7601 112.92 29.8667 112.92 27.6801C112.92 25.4934 113.307 23.5734 114.08 21.9201C114.88 20.2401 115.987 18.9334 117.4 18.0001C118.813 17.0401 120.427 16.5601 122.24 16.5601Z" fill="white"/>
<path d="M137.56 10.48V17.16H143.48V17.96H137.56V33.44C137.56 34.6933 137.787 35.5733 138.24 36.08C138.693 36.5866 139.32 36.84 140.12 36.84C140.92 36.84 141.613 36.52 142.2 35.88C142.787 35.2133 143.293 34.1066 143.72 32.56L144.52 32.76C144.253 34.3066 143.72 35.6133 142.92 36.68C142.147 37.7466 140.947 38.28 139.32 38.28C138.413 38.28 137.667 38.16 137.08 37.92C136.493 37.7066 135.973 37.3866 135.52 36.96C134.933 36.3466 134.52 35.6133 134.28 34.76C134.067 33.9067 133.96 32.7733 133.96 31.36V17.96H130.12V17.16H133.96V11.04C134.627 11.0133 135.267 10.96 135.88 10.88C136.493 10.8 137.053 10.6666 137.56 10.48Z" fill="white"/>
<path d="M150.8 38.2801C149.707 38.2801 148.76 38.0801 147.96 37.6801C147.16 37.2534 146.547 36.6668 146.12 35.9201C145.72 35.1734 145.52 34.3068 145.52 33.3201C145.52 32.1468 145.787 31.1868 146.32 30.4401C146.88 29.6934 147.587 29.0934 148.44 28.6401C149.293 28.1868 150.187 27.8134 151.12 27.5201C152.08 27.2001 152.987 26.9068 153.84 26.6401C154.693 26.3468 155.387 26.0134 155.92 25.6401C156.48 25.2668 156.76 24.7734 156.76 24.1601V21.6801C156.76 20.5601 156.587 19.7068 156.24 19.1201C155.92 18.5334 155.48 18.1468 154.92 17.9601C154.36 17.7468 153.733 17.6401 153.04 17.6401C152.373 17.6401 151.653 17.7334 150.88 17.9201C150.133 18.1068 149.533 18.4934 149.08 19.0801C149.587 19.1868 150.027 19.4534 150.4 19.8801C150.773 20.3068 150.96 20.8534 150.96 21.5201C150.96 22.1868 150.747 22.7201 150.32 23.1201C149.893 23.4934 149.347 23.6801 148.68 23.6801C147.907 23.6801 147.333 23.4401 146.96 22.9601C146.613 22.4534 146.44 21.8934 146.44 21.2801C146.44 20.5868 146.613 20.0268 146.96 19.6001C147.307 19.1734 147.747 18.7734 148.28 18.4001C148.893 17.9734 149.68 17.6134 150.64 17.3201C151.627 17.0001 152.733 16.8401 153.96 16.8401C155.053 16.8401 155.987 16.9734 156.76 17.2401C157.533 17.4801 158.173 17.8401 158.68 18.3201C159.373 18.9601 159.827 19.7468 160.04 20.6801C160.253 21.5868 160.36 22.6801 160.36 23.9601V35.0801C160.36 35.7468 160.453 36.2268 160.64 36.5201C160.853 36.8134 161.173 36.9601 161.6 36.9601C161.893 36.9601 162.173 36.8934 162.44 36.7601C162.707 36.6268 163.027 36.4134 163.4 36.1201L163.84 36.8001C163.28 37.2268 162.747 37.5868 162.24 37.8801C161.733 38.1468 161.053 38.2801 160.2 38.2801C159.427 38.2801 158.787 38.1468 158.28 37.8801C157.773 37.6134 157.387 37.2268 157.12 36.7201C156.88 36.1868 156.76 35.5201 156.76 34.7201C156.04 35.9201 155.173 36.8134 154.16 37.4001C153.173 37.9868 152.053 38.2801 150.8 38.2801ZM152.24 36.6801C153.12 36.6801 153.933 36.4268 154.68 35.9201C155.453 35.4134 156.147 34.6534 156.76 33.6401V25.8001C156.44 26.2534 155.973 26.6401 155.36 26.9601C154.747 27.2534 154.08 27.5601 153.36 27.8801C152.64 28.1734 151.947 28.5334 151.28 28.9601C150.64 29.3601 150.107 29.8934 149.68 30.5601C149.253 31.2268 149.04 32.0934 149.04 33.1601C149.04 34.2268 149.32 35.0801 149.88 35.7201C150.467 36.3601 151.253 36.6801 152.24 36.6801Z" fill="white"/>
</svg>
