<svg width="50" height="50" viewBox="0 0 50 50" fill="none" xmlns="http://www.w3.org/2000/svg">
<rect width="50" height="50" rx="25" fill="#C7C6C5"/>
<path d="M16.25 26.3681V23.6319C16.25 22.8181 16.8699 22.1585 17.6346 22.1585H19.6423C19.7778 22.1585 19.9103 22.1162 20.0234 22.0368L24.1766 19.1229C24.6369 18.7999 25.25 19.1512 25.25 19.7379V30.2621C25.25 30.8487 24.6369 31.2001 24.1766 30.8771L20.0234 27.9632C19.9103 27.8839 19.7778 27.8415 19.6423 27.8415H17.6346C16.8699 27.8415 16.25 27.1819 16.25 26.3681Z" stroke="#253143" stroke-width="1.5"/>
<path d="M28.4375 22.1875C28.4375 22.1875 29.375 23.125 29.375 24.6875C29.375 26.25 28.4375 27.1875 28.4375 27.1875" stroke="#253143" stroke-width="1.5" stroke-linecap="round" stroke-linejoin="round"/>
<path d="M31.3125 20.3125C31.3125 20.3125 32.875 21.875 32.875 24.6875C32.875 27.5 31.3125 29.0625 31.3125 29.0625" stroke="#253143" stroke-width="1.5" stroke-linecap="round" stroke-linejoin="round"/>
</svg>
