<svg width="40" height="40" viewBox="0 0 40 40" fill="none" xmlns="http://www.w3.org/2000/svg">
<path d="M23.9271 13.0284C22.3167 13.3523 20.8681 14.2236 19.8273 15.4945C18.7866 16.7654 18.2179 18.3574 18.2179 20C18.2179 21.6426 18.7866 23.2346 19.8273 24.5055C20.8681 25.7764 22.3167 26.6477 23.9271 26.9716M12 20C12 21.0506 12.2069 22.0909 12.609 23.0615C13.011 24.0321 13.6003 24.914 14.3431 25.6569C15.086 26.3997 15.9679 26.989 16.9385 27.391C17.9091 27.7931 18.9494 28 20 28C21.0506 28 22.0909 27.7931 23.0615 27.391C24.0321 26.989 24.914 26.3997 25.6569 25.6569C26.3997 24.914 26.989 24.0321 27.391 23.0615C27.7931 22.0909 28 21.0506 28 20C28 18.9494 27.7931 17.9091 27.391 16.9385C26.989 15.9679 26.3997 15.086 25.6569 14.3431C24.914 13.6003 24.0321 13.011 23.0615 12.609C22.0909 12.2069 21.0506 12 20 12C18.9494 12 17.9091 12.2069 16.9385 12.609C15.9679 13.011 15.086 13.6003 14.3431 14.3431C13.6003 15.086 13.011 15.9679 12.609 16.9385C12.2069 17.9091 12 18.9494 12 20Z" stroke="#253143" stroke-width="1.66667" stroke-linecap="round" stroke-linejoin="round"/>
</svg>
