<svg width="328" height="328" viewBox="0 0 328 328" fill="none" xmlns="http://www.w3.org/2000/svg">
<circle cx="164" cy="164" r="164" fill="#D9D9D9"/>
<path d="M119.129 277.897L123.564 266.621C123.829 265.944 123.817 265.19 123.531 264.522C123.245 263.854 122.707 263.325 122.034 263.05C88.9522 249.019 64.4842 218.762 58.5712 182.179C58.3162 180.699 56.9912 179.628 55.4612 179.832L43.4312 181.414C41.9032 181.618 40.7812 183.047 41.0362 184.577C47.8162 227.436 76.6162 263.05 115.459 279.428C116.886 280.04 118.517 279.326 119.129 277.846V277.897Z" fill="#B0AFB8"/>
<path d="M73.9153 123.809C72.4873 123.146 70.8053 123.809 70.1933 125.187C64.9433 137.432 62.0383 150.851 62.0383 164.984C62.0383 199.68 79.5223 230.344 106.13 248.661C107.405 249.529 109.189 249.171 110.005 247.845L116.58 237.742C117.396 236.467 117.09 234.834 115.867 233.967C94.0493 218.813 79.7263 193.608 79.7263 164.984C79.7263 153.453 82.0703 142.484 86.3013 132.484C86.8623 131.105 86.2513 129.524 84.9253 128.912L73.9653 123.809H73.9153Z" fill="#B0AFB8"/>
<path d="M110.82 201.619C112.044 200.802 112.4 199.119 111.636 197.894C105.621 188.404 102.155 177.128 102.155 165.087C102.155 138.861 118.568 116.513 141.66 107.687C143.036 107.177 143.699 105.645 143.291 104.267L139.57 92.8898C139.06 91.3598 137.429 90.5938 135.9 91.1548C105.978 102.38 84.6702 131.31 84.6702 165.087C84.6702 180.699 89.2582 195.292 97.1082 207.588C97.9752 208.915 99.7082 209.323 101.033 208.405L110.871 201.67L110.821 201.619H110.82Z" fill="#B0AFB8"/>
<path d="M269.81 165.036C269.81 199.272 253.651 229.732 228.52 249.223C227.932 249.663 227.542 250.319 227.437 251.046C227.332 251.773 227.52 252.512 227.96 253.1L235.147 262.795C236.064 264.019 237.849 264.325 239.072 263.356C268.484 240.651 287.498 205.037 287.498 165.036C287.498 159.882 287.192 154.831 286.58 149.831C286.376 148.3 284.949 147.229 283.42 147.433L271.441 149.27C269.963 149.474 268.943 150.902 269.096 152.382C269.606 156.515 269.861 160.75 269.861 165.036H269.81Z" fill="#6D6E7D"/>
<path d="M261.654 173.71L249.573 172.74C248.043 172.638 246.769 173.71 246.565 175.24C242.13 211.874 214.043 241.263 178.055 247.59C176.577 247.845 175.507 249.223 175.762 250.753L177.495 262.744C177.699 264.274 179.177 265.346 180.706 265.091C224.646 257.539 259.003 221.569 264.202 176.822C264.406 175.291 263.234 173.863 261.654 173.761V173.71Z" fill="#6D6E7D"/>
<path d="M234.739 191.618L223.525 187.537C222.149 187.026 220.619 187.69 220.059 189.016C210.73 211.007 188.913 226.467 163.528 226.467C148.643 226.467 135.033 221.16 124.379 212.333C123.258 211.415 121.576 211.517 120.556 212.64L112.502 221.466C111.432 222.64 111.585 224.477 112.808 225.497C126.52 237.028 144.208 244.018 163.477 244.018C196.253 244.018 224.442 223.916 236.319 195.343C236.467 194.993 236.542 194.616 236.539 194.235C236.537 193.855 236.457 193.479 236.304 193.13C236.151 192.782 235.929 192.468 235.652 192.208C235.374 191.948 235.046 191.747 234.688 191.618H234.739Z" fill="#6D6E7D"/>
<path d="M84.8232 72.889L92.6232 82.124C93.5912 83.298 95.3232 83.4 96.4962 82.481C114.796 67.583 138.091 58.654 163.477 58.654C177.393 58.654 190.646 61.307 202.778 66.205C204.205 66.766 205.786 66.155 206.397 64.725L211.138 53.603C211.75 52.173 211.087 50.49 209.66 49.929C195.387 44.163 179.789 41 163.477 41C133.759 41 106.487 51.51 85.1292 69.011C83.9562 69.981 83.8042 71.767 84.7722 72.941L84.8232 72.889Z" fill="#253143"/>
<path d="M163.477 63.501C149.714 63.501 136.613 66.256 124.685 71.256C123.258 71.869 122.646 73.501 123.258 74.93L128.151 86.002C128.763 87.38 130.394 87.992 131.771 87.43C141.558 83.4 152.262 81.206 163.477 81.206C190.646 81.206 214.757 94.166 230.049 114.166C230.967 115.391 232.649 115.646 233.923 114.779L243.711 107.738C244.985 106.819 245.24 105.084 244.322 103.808C225.768 79.369 196.457 63.501 163.528 63.501H163.477Z" fill="#253143"/>
<path d="M163.477 86.0532C161.998 86.0532 160.469 86.0532 158.991 86.2062C157.411 86.3082 156.238 87.6862 156.34 89.2672L157.411 101.207C157.564 102.687 158.838 103.809 160.316 103.707C161.336 103.655 162.355 103.605 163.426 103.605C197.324 103.605 224.799 131.105 224.799 165.036C224.799 166.974 224.697 168.862 224.544 170.699C224.391 172.179 225.462 173.505 226.94 173.709L238.817 175.189C240.397 175.393 241.774 174.22 241.926 172.689C242.181 170.189 242.334 167.638 242.334 165.036C242.334 121.513 206.958 86.0532 163.426 86.0532H163.477Z" fill="#253143"/>
</svg>
